<?xml version="1.0"?>
<svg xmlns="http://www.w3.org/2000/svg" id="outline" viewBox="0 0 512 512" width="512" height="512"><path d="M72,140V367.208L48.15527,486.43066A8.00012,8.00012,0,0,0,56,496H80a7.99912,7.99912,0,0,0,7.15527-4.42188l48-96a8.00367,8.00367,0,0,0,.68946-2.00878l1.65576-8.27832,6.77295,16.93261,15.85547,87.207A7.99967,7.99967,0,0,0,168,496h24a8.00039,8.00039,0,0,0,8-8V400a7.98766,7.98766,0,0,0-.17773-1.67578L176,287.15356V238.05469A149.03128,149.03128,0,0,0,200,240h32a8.00039,8.00039,0,0,0,8-8v-8h64a8.00039,8.00039,0,0,0,8-8V80a8.00039,8.00039,0,0,0-8-8H200a8.00039,8.00039,0,0,0-8,8v71.99976l-16.02783-12.021a48.31226,48.31226,0,0,0-9.57178-27.44556L154.93408,97.24512A31.79934,31.79934,0,0,0,160,80V42.42188A26.42195,26.42195,0,0,0,118.92188,20.4375L99.5625,33.34375A7.99943,7.99943,0,0,0,96,40V80a31.79981,31.79981,0,0,0,3.81543,15.13818l-8.61523,6.46143A48.22961,48.22961,0,0,0,72,140Zm3.05566,340H65.75879L87.84473,369.56934A7.9929,7.9929,0,0,0,88,368V256h72v28.68652L146.90625,297.7793a47.84464,47.84464,0,0,0-13.126,24.52734l-13.415,67.07422ZM184,480h-9.32324l-14.80567-81.43066a7.95758,7.95758,0,0,0-.44336-1.54l-16-40-.29882.11963,6.34082-31.70362a31.892,31.892,0,0,1,8.751-16.35156l5.03833-5.03833L184,400.84766ZM160,240H88V189.28613a149.02028,149.02028,0,0,0,72,45.23975Zm64-16H208V208h16ZM208,88h88V208H240v-8a8.00039,8.00039,0,0,0-8-8H208ZM192,188.09912a71.921,71.921,0,0,1-16-9.91186v-18.187l16,12ZM112,80V64h32V80a16,16,0,0,1-32,0Zm0-35.71875L127.79785,33.749A10.42284,10.42284,0,0,1,144,42.42188V48H112Zm-11.2002,70.11914,9.95508-7.46631a31.90979,31.90979,0,0,0,32.38355,1.25025l10.46216,13.94848A32.20056,32.20056,0,0,1,160,141.333v18.43554a71.32451,71.32451,0,0,1-5.30566-10.57226l-3.26661-8.167-14.85546,5.9414,3.2666,8.167a88.38777,88.38777,0,0,0,49.02343,49.02343L192,205.416v18.335a133.03165,133.03165,0,0,1-92.124-45.1836L88,164.99463V140A32.15109,32.15109,0,0,1,100.7998,114.40039Z"/><rect x="240" y="104" width="40" height="16"/><rect x="224" y="136" width="56" height="16"/><rect x="224" y="168" width="56" height="16"/><path d="M451.24121,138.78711a48.142,48.142,0,0,0-25.89746-35.05078L404.97461,93.56274A31.80075,31.80075,0,0,0,408,80V40a7.99943,7.99943,0,0,0-3.5625-6.65625L385.0791,20.43848A26.42157,26.42157,0,0,0,344,42.42188V80a31.80311,31.80311,0,0,0,5.189,17.437l-8.20263,10.7876A63.89357,63.89357,0,0,0,328,146.667V287.15356L304.17773,398.32422A7.98766,7.98766,0,0,0,304,400v88a8.00039,8.00039,0,0,0,8,8h24a7.99967,7.99967,0,0,0,7.87109-6.56934l15.85547-87.207,6.77295-16.93261,1.65576,8.27832a8.00367,8.00367,0,0,0,.68946,2.00878l48,96A7.99912,7.99912,0,0,0,424,496h24a8.00012,8.00012,0,0,0,7.84473-9.56934L432,367.208V288h8.61328a7.99925,7.99925,0,0,0,7.77832-6.12988l15.38672-64a8.01161,8.01161,0,0,0,.11328-3.18555ZM376,96a16.01833,16.01833,0,0,1-16-16V64h32V80A16.01833,16.01833,0,0,1,376,96ZM360,42.42188A10.42245,10.42245,0,0,1,376.20312,33.75L392,44.28125V48H360ZM344,146.667a47.80023,47.80023,0,0,1,9.72266-28.75781l7.323-9.63037a31.81575,31.81575,0,0,0,4.511,1.96191l-5.13574,15.19776A8.01583,8.01583,0,0,0,360,128v48h16V129.31543l6.04785-17.89648a31.82431,31.82431,0,0,0,12.344-5.2566l23.80249,11.88843A32.09288,32.09288,0,0,1,435.459,141.418l4.88477,29.30786-26.14087,10.314-6.739-23.26538-15.36914,4.45118L408,217.13477V240H344ZM360.57227,357.0293l-16,40a7.95758,7.95758,0,0,0-.44336,1.54L329.32324,480H320V400.84766l20.741-96.79224,5.03833,5.03833a31.892,31.892,0,0,1,8.751,16.35156l6.34082,31.70362Zm55.583,12.54L438.24121,480h-9.29687l-45.30957-90.61914-13.415-67.07422a47.84464,47.84464,0,0,0-13.126-24.52734L344,284.68652V256h64v24a8.00039,8.00039,0,0,0,8,8v80A7.9929,7.9929,0,0,0,416.15527,369.56934ZM434.30859,272H424V216a8.02094,8.02094,0,0,0-.31543-2.22559l-5.01074-17.29882,24.35986-9.61109,4.80811,28.84644Z"/></svg>
